inDegrees=no
num_controls=7
num_derivatives=13
num_iterations=154
num_multipliers=7
num_parameters=0
num_slacks=7
num_states=26
objective=0.468781
objective_accelerations=0.064456
objective_balance=0.002104
objective_effort=0.020593
objective_height=0.372163
objective_ligament=0.009465
solver_duration=2059.243843
status=Solve_Succeeded
success=true
DataType=double
version=3
OpenSimVersion=4.5
endheader
time	/jointset/ground_pelvis/pelvis_tilt/value	/jointset/ground_pelvis/pelvis_tx/value	/jointset/ground_pelvis/pelvis_ty/value	/jointset/hip_l/hip_flexion_l/value	/jointset/hip_l/hip_adduction_l/value	/jointset/hip_l/hip_rotation_l/value	/jointset/back/lumbar_extension/value	/jointset/patellofemoral_l/patellar_flexion_l/value	/jointset/knee_l/knee_flexion_l/value	/jointset/knee_l/knee_adduction_l/value	/jointset/knee_l/knee_rotation_l/value	/jointset/ankle_l/ankle_angle_l/value	/jointset/subtalar_l/subtalar_angle_l/value	/jointset/ground_pelvis/pelvis_tilt/speed	/jointset/ground_pelvis/pelvis_tx/speed	/jointset/ground_pelvis/pelvis_ty/speed	/jointset/hip_l/hip_flexion_l/speed	/jointset/hip_l/hip_adduction_l/speed	/jointset/hip_l/hip_rotation_l/speed	/jointset/back/lumbar_extension/speed	/jointset/patellofemoral_l/patellar_flexion_l/speed	/jointset/knee_l/knee_flexion_l/speed	/jointset/knee_l/knee_adduction_l/speed	/jointset/knee_l/knee_rotation_l/speed	/jointset/ankle_l/ankle_angle_l/speed	/jointset/subtalar_l/subtalar_angle_l/speed	/forceset/tau_hip_flexion_l	/forceset/tau_hip_adduction_l	/forceset/tau_hip_rotation_l	/forceset/tau_knee_flexion_l	/forceset/tau_ankle_angle_l	/forceset/tau_subtalar_angle_l	/forceset/tau_lumbar_extension	lambda_cid13_p0	lambda_cid13_p1	lambda_cid13_p2	lambda_cid13_p3	lambda_cid13_p4	lambda_cid13_p5	lambda_cid14_p0	/jointset/ground_pelvis/pelvis_tilt/accel	/jointset/ground_pelvis/pelvis_tx/accel	/jointset/ground_pelvis/pelvis_ty/accel	/jointset/hip_l/hip_flexion_l/accel	/jointset/hip_l/hip_adduction_l/accel	/jointset/hip_l/hip_rotation_l/accel	/jointset/back/lumbar_extension/accel	/jointset/patellofemoral_l/patellar_flexion_l/accel	/jointset/knee_l/knee_flexion_l/accel	/jointset/knee_l/knee_adduction_l/accel	/jointset/knee_l/knee_rotation_l/accel	/jointset/ankle_l/ankle_angle_l/accel	/jointset/subtalar_l/subtalar_angle_l/accel	gamma_cid13_p0	gamma_cid13_p1	gamma_cid13_p2	gamma_cid13_p3	gamma_cid13_p4	gamma_cid13_p5	gamma_cid14_p0
1.5	-0.5635687196741511	-0.04383730453958985	0.7878143736425135	1.221799286495327	-0.3471488453922886	-0.1144745285711027	-0.3437514320819134	0.5766376674848644	0.5766376674848568	-0.05677129454993665	-0.1744860663583242	0.01457581973865358	0.0792986315773285	1.094905816344114	0.5009805006918295	0.4856959531628292	-2.861189055724693	-0.002783335623750081	-0.5261642177081363	0.6000304140452467	-1.569490386798836	-1.569490386798847	-0.2131719280103989	0.002680012399547004	0.08590629952051718	0.02890297176244097	-0.2052952892334794	0.002978828713531304	0.007165287820762402	-0.06591952536998079	0.03290006952315749	0.02319995267228864	0.1670663108397728	-12.46681998517321	-10.00383949367443	3.725087938007769	-7.793065831446309	-430.0013538072681	-71.87346800809935	-19.83454212289811	0.8276070971080774	0.8926508171288402	-0.6154020797504073	-1.780444370471425	0.2341742929288977	-0.2980048333664468	1.873378081593877	-0.5837287522632951	-0.5837287522632976	-0.364054398082041	0.1260735567590995	0.3109444576209978	0.3377126037537566	-2.410846202433691e-08	1.551860675855508e-06	2.030722562555044e-07	3.163254326024381e-07	2.485389682430959e-07	-1.57773907726332e-07	2.323157153453493e-07
1.51	-0.5525790850026601	-0.03878346979828939	0.7926395698683428	1.193101018932888	-0.3471657514361045	-0.1197527470617322	-0.3376595135799955	0.5609155031871557	0.5609155031871594	-0.05892170112010767	-0.1744554242874524	0.01545026372071127	0.07960372588508619	1.102837431214789	0.5097122315516595	0.4792359397223138	-2.878052048862212	-0.0005742914092481939	-0.5293787113920256	0.6182557414441292	-1.57473430758625	-1.574734307586245	-0.2168763047334194	0.003516313717238498	0.0889831731194428	0.03214027698881188	-0.1981974268444461	0.002420432207379333	0.007505460300197189	-0.06438090228705599	0.02984228091912966	0.02219760144129944	0.1617961758467175	-13.2961303757577	-9.622091248920201	3.891280207886749	-7.048200503811948	-425.9858976716895	-71.51852232415888	-20.36630342273309	0.748404823142707	0.8523659002869791	-0.67734911210878	-1.577342862510972	0.2175136482104221	-0.3178837251553516	1.782478334905724	-0.4635468656454492	-0.4635468656431075	-0.3683468222793639	0.07255153088112766	0.3062073523873982	0.3201235130751856	-2.657958896317813e-08	1.594154100521556e-06	1.799016221514067e-07	3.190223489242419e-07	2.650337117264782e-07	-1.360260525397468e-07	2.370476643954947e-07
1.52	-0.5415156409542426	-0.03364453141241527	0.7973969563325858	1.164246498223648	-0.3471599182052759	-0.1250600529070562	-0.3313882681509149	0.5451471350568472	0.5451471350568506	-0.06110809496008771	-0.174414390581061	0.01635550614702963	0.07994187005130683	1.10966769172928	0.5180012296065604	0.4721340008455323	-2.892439685084483	0.001764519305241455	-0.5319816886461221	0.6358957994778239	-1.578731153320262	-1.578731153320242	-0.2203693819711338	0.004758339499207233	0.09206598837273088	0.0355129434550393	-0.1910995644554332	0.001862035701205924	0.007845632779583627	-0.06284227920413285	0.02678449231509755	0.02119525021028812	0.1565260408536473	-14.12919091948358	-9.237776645281979	4.054882354217002	-6.284211944127486	-422.0238342040822	-71.19365263886876	-20.87699293072137	0.6073362258710696	0.804104256143074	-0.7437871670036152	-1.285372987421776	0.2601275929264379	-0.1757015474079101	1.756324208556313	-0.3343137415829799	-0.3343137415829775	-0.3217945010208214	0.207218449614512	0.3121327884935087	0.3647848517250513	2.676417954532262e-09	1.550248043665379e-06	-7.174561632620207e-08	2.989146055129912e-07	3.392513235198721e-07	-1.175240845685921e-07	2.646792571452153e-07
1.53	-0.5303892065747184	-0.02842497421701757	0.8020802064808896	1.135260047242302	-0.3471307950297843	-0.1303894650745212	-0.3249439255906454	0.5293448135142578	0.5293448135142694	-0.06333015888199027	-0.174358608679996	0.01729133260567734	0.08031355783415638	1.11543076587067	0.525827222551424	0.4644151746709315	-2.904425892623333	0.004072253430849056	-0.5338593842004298	0.6528605553805541	-1.581516583250321	-1.581516583250249	-0.2239918663895777	0.006404253212452707	0.09509746827389123	0.03883735879286734	-0.1840503562084276	0.00152124499693155	0.008144036582788238	-0.06137400699438027	0.02396032221514781	0.01971616377105934	0.151255259664392	-14.92511643427496	-8.654935466886444	4.189137818017553	-5.524548490559793	-418.2348083842128	-70.49911226259346	-21.3636857914223	0.5325670594400057	0.7594449435719133	-0.8009489911983662	-1.091505554835528	0.2177718161724832	-0.1873201067777685	1.649727701803034	-0.2182407186220454	-0.2182407186143011	-0.3745321853222817	0.1439928464250078	0.298418015632502	0.3180684981593666	6.564250459482837e-08	1.414755037691837e-06	-5.661492469506638e-07	2.545769111353704e-07	4.747994828926525e-07	-1.024708717638324e-07	3.166417213257344e-07
1.54	-0.5192107866435467	-0.02312963746618849	0.8066832646377456	1.106166482002023	-0.3470782594142778	-0.1357363575069976	-0.3183333001872142	0.5135211210523866	0.5135211210524083	-0.06558685900268608	-0.1742862246389457	0.01825742634827762	0.08071884949505373	1.120064802058744	0.533157140692837	0.4560956025559305	-2.913862536870941	0.006447007308240254	-0.5354777416481596	0.6691523681101513	-1.58300533717657	-1.583005337176446	-0.2272966217306664	0.008078767495516224	0.09811944516326011	0.04223371906460289	-0.1770011479614291	0.001180454292651105	0.008442440386005006	-0.05990573478462752	0.02113615211519763	0.0182370773318239	0.1459844784751308	-15.72468538166432	-8.071626302930309	4.323513461944382	-4.753296868395199	-414.4981823167732	-69.86616333470275	-21.82439313453488	0.3815286352078459	0.7048892954529974	-0.8639363550836485	-0.7754603291732407	0.2735315432831505	-0.1238339260923303	1.621735573929703	-0.07497854082099778	-0.07497854082099416	-0.2582486855498079	0.2129385635781132	0.3102321861352272	0.3791738385065572	9.829149943906108e-08	1.39227773891481e-06	-8.207940846696164e-07	2.321153755357156e-07	5.643342229596155e-07	-7.665363224964375e-08	3.478148268276716e-07
1.55	-0.5079916708002259	-0.01776356545333308	0.8112002296880572	1.076991187331408	-0.347001733200036	-0.1410979338044237	-0.3115633600911306	0.4976888337096227	0.497688833709637	-0.0678753317368133	-0.1741967682136617	0.0192535516520179	0.08115832499421215	1.123566070529813	0.5399655375494515	0.4472048258904885	-2.920761010289988	0.008860163273560437	-0.5367342483792116	0.6847045587010713	-1.583232587465826	-1.583232587465753	-0.2303800801136862	0.009865670667876039	0.1010993831546515	0.04566172946914424	-0.1699991574441277	0.0001065682048874547	0.008724039738686714	-0.05860090410084749	0.01838409732421907	0.0171482711233078	0.1407171743414312	-16.4921993415273	-7.651536105720987	4.470325948042545	-3.998703819735576	-411.0019337718508	-69.63996435255045	-22.25998668363311	0.3056140289725027	0.6551035081169925	-0.9154113362577688	-0.5816895677381372	0.2253088252134068	-0.1107806951395001	1.502296940848537	0.03626150435148328	0.03626150434383685	-0.3304667541568834	0.169323145589871	0.2909835644309686	0.3245142864896042	9.6009931996527e-08	1.500014189733758e-06	-7.991950957800627e-07	2.34858979397629e-07	6.008535016524873e-07	-3.843436196154862e-08	3.55034975591244e-07
